<svg xmlns="http://www.w3.org/2000/svg" viewBox="0 0 686.49 363.47"><defs><style>.cls-1{fill:#fff;}</style></defs><title>Recurso 3</title><g id="Capa_2" data-name="Capa 2"><g id="Capa_1-2" data-name="Capa 1"><path class="cls-1" d="M180.3,242.84c34.48-52,40-135.7,6.13-191.16C149.21-9.15,82.75-17.49,38,33.11s-50.85,141-13.63,201.81c33,54.06,92.52,62.69,136,29.32l2.18,3.55,19.34-22.33Zm-20.85-11.05c-35.91,40.6-89.26,33.91-119.11-14.93-18.67-30.54-23.77-70.32-16.19-105.78,4.55-21.28,13.66-41,27.13-56.23,35.93-40.64,89.29-34,119.17,14.91S195.41,191.16,159.45,231.79Z"/><path class="cls-1" d="M174.08,276.76l-8.9-14.48,12.93-15,9,14.58c7-4.12,12.64,4,15.68,9.14l33.7,56.83c4.48,7.54,5.57,16.54-4.51,28.05s-16.23,8.29-20.69.73l-33.7-56.81C174.51,294.68,169.82,285.52,174.08,276.76Z"/><path class="cls-1" d="M61.32,116.63H41.54c-.47,0-.84,1-.84,2.14v5.94c0,3.79,1.21,6.87,2.69,6.87H61.32Z"/><path class="cls-1" d="M169.2,116.63H148.7v15h18.58c1.54,0,2.78-3.08,2.78-6.87v-5.94C170.06,117.59,169.68,116.63,169.2,116.63Z"/><rect class="cls-1" x="56.4" y="177.54" width="18.36" height="31.95"/><rect class="cls-1" x="136.01" y="177.54" width="18.36" height="31.95"/><path class="cls-1" d="M158.1,145.46H52.66l8.06-52.57c1.35-8.84,7.47-15.77,13.92-15.77h61.48c6.46,0,12.57,6.93,13.93,15.77Zm-98-8.48h90.49l-6.49-42.31c-.75-4.92-4.42-9.08-8-9.08H74.64c-3.59,0-7.26,4.16-8,9.08Z"/><path class="cls-1" d="M132.2,124.43H78.57c-16.7,0-30.23,13.28-30.23,29.66v29.65H162.42V154.09C162.42,137.71,148.89,124.43,132.2,124.43Zm-61.39,37.5c-5.89,0-10.67-3.51-10.67-7.84s4.78-7.85,10.67-7.85,10.66,3.51,10.66,7.85S76.69,161.93,70.81,161.93Zm65.27,2.16a3.12,3.12,0,0,1-1.86.86c-.87,0-1.6-.87-2.25-1.68a99.46,99.46,0,0,1-7.9-11.39l18.77-.74,7.79-.3C143.15,157.65,137.78,162.8,136.08,164.09Z"/><path class="cls-1" d="M284.82,207.79,282,189.48H257.48l-2.88,18.7A122.57,122.57,0,0,1,251.73,223c-.8,2.56-2.1,3.83-3.9,3.83-1.54,0-2.89-1.36-4.07-4.08a23.16,23.16,0,0,1-1.76-9.25,47.07,47.07,0,0,1,.41-6.16q.41-3.18,1.35-8.85l15.4-94.69c.44-2.72,1-6,1.58-9.8a91.42,91.42,0,0,1,2-9.5,19,19,0,0,1,2.75-6.11,5,5,0,0,1,8.46,0,18.85,18.85,0,0,1,2.75,6,74.66,74.66,0,0,1,1.77,7.91q.71,4.23,1.82,11.29L296,197.64a104.45,104.45,0,0,1,1.85,15.62,24.22,24.22,0,0,1-1.75,9.3q-1.74,4.22-4.21,4.22a3.08,3.08,0,0,1-2.46-1.24,10.16,10.16,0,0,1-1.72-3.38,52.66,52.66,0,0,1-1.5-6.57Q285.39,211.16,284.82,207.79ZM260.68,167.3h18l-9.07-60.17Z"/><path class="cls-1" d="M335.12,211.47V208a65.57,65.57,0,0,1-4.23,10.35,19.14,19.14,0,0,1-4.85,6.22,9.56,9.56,0,0,1-6,2q-4.07,0-7.29-4.07a29.43,29.43,0,0,1-5-11.24q-2.08-8.66-2.09-24.87V132.59c0-5.43.5-9.5,1.52-12.18s2.35-4,4-4,3.07,1.36,4.11,4.08,1.56,6.76,1.56,12.13v43.47q0,9.45.65,15.86A32.13,32.13,0,0,0,319.9,202q1.71,3.63,4.62,3.63t5.34-4.08a30.46,30.46,0,0,0,3.66-10.64q.93-5.77.94-25.27v-33q0-8.06,1.56-12.13t4.06-4.08c1.67,0,3,1.34,4,4s1.52,6.75,1.52,12.18v78.68q0,7.75-1.46,11.63t-3.76,3.88c-1.53,0-2.8-1.34-3.79-4S335.12,216.31,335.12,211.47Z"/><path class="cls-1" d="M357.41,118.77h1.23V102.46q0-6.57.15-10.3a32,32,0,0,1,.8-6.41,13,13,0,0,1,1.89-4.53,3.42,3.42,0,0,1,2.75-1.74q2.13,0,3.86,3.88a19.55,19.55,0,0,1,1.45,6.31q.31,3.73.31,10.6v18.5H374c1.58,0,2.8.91,3.63,2.73a16.85,16.85,0,0,1,1.25,7c0,3.65-.59,6.21-1.78,7.66a6.22,6.22,0,0,1-5.11,2.19h-2.1v49.93c0,4.25.06,7.51.19,9.8a19.19,19.19,0,0,0,1,5.57c.54,1.42,1.4,2.14,2.61,2.14a6.39,6.39,0,0,0,2.67-.85,6.49,6.49,0,0,1,2.63-.84c.9,0,1.71.87,2.44,2.63a17.25,17.25,0,0,1,1.09,6.52q0,6.56-3,10t-8.5,3.48a8.82,8.82,0,0,1-8-4.27q-2.71-4.27-3.55-11.84a188.44,188.44,0,0,1-.85-20.19V138.36h-1.48q-2.42,0-3.69-2.78a17,17,0,0,1-1.27-7.07,16,16,0,0,1,1.33-7A4.19,4.19,0,0,1,357.41,118.77Z"/><path class="cls-1" d="M428.52,171.58A149.09,149.09,0,0,1,427,194a79.63,79.63,0,0,1-4.51,17.6,31.69,31.69,0,0,1-7.07,11.29,13,13,0,0,1-9.23,3.93,12.75,12.75,0,0,1-9.16-4,32.79,32.79,0,0,1-7-11.38,79.13,79.13,0,0,1-4.52-17.51,149.55,149.55,0,0,1-1.54-22.33A150.6,150.6,0,0,1,385.45,149a79.52,79.52,0,0,1,4.48-17.5A31.22,31.22,0,0,1,397,120.31a12.67,12.67,0,0,1,18.39,0,31.93,31.93,0,0,1,7.11,11.34A78.63,78.63,0,0,1,427,149.2,149.39,149.39,0,0,1,428.52,171.58Zm-11.25,0q0-16.61-3-25.86t-8.11-9.25q-3.28,0-5.79,4.13t-3.86,12.18a115,115,0,0,0-1.36,18.8,113.62,113.62,0,0,0,1.34,18.6q1.33,8,3.82,12.18t5.85,4.23q5.09,0,8.11-9.3T417.27,171.58Z"/><path class="cls-1" d="M489.41,178.25A88.17,88.17,0,0,1,488,193.31a83.49,83.49,0,0,1-4.46,15.92,37.6,37.6,0,0,1-7.76,12.68,14.86,14.86,0,0,1-11,4.87,17.5,17.5,0,0,1-8.67-2.18,21.69,21.69,0,0,1-7.08-6.82,52.48,52.48,0,0,1-5.85-12.18,114.87,114.87,0,0,1-4.06-15.37,167.21,167.21,0,0,1-2.53-18.15q-.84-9.65-.84-20.49a211.5,211.5,0,0,1,2.11-31.53,109.07,109.07,0,0,1,6.06-23.82q3.94-9.9,9.24-15.07T464.45,76q7.31,0,13,7.06a49.55,49.55,0,0,1,8.75,17.46,70.27,70.27,0,0,1,3,19.64,25.14,25.14,0,0,1-1.48,9Q486.29,133,484.2,133c-1.56,0-2.73-.89-3.51-2.69a55.91,55.91,0,0,1-2.61-9.25q-2.38-10.83-5.6-16.21t-8-5.37q-7.51,0-12,13.83t-4.45,39.28a168.22,168.22,0,0,0,2,28.3q2,11.3,5.58,16.86t8.46,5.57q5.25,0,8.89-6.32t5.48-18.55a57.18,57.18,0,0,1,1.93-9.39c.77-2.42,2-3.64,3.7-3.64q2.17,0,3.73,3.69A23.49,23.49,0,0,1,489.41,178.25Z"/><path class="cls-1" d="M510.56,92.51v40.28a58.14,58.14,0,0,1,4.16-9.45,16.42,16.42,0,0,1,4.5-5.22,9,9,0,0,1,5.3-1.74c2.84,0,5.37,1.46,7.57,4.38s3.94,7.16,5.2,12.73a65.63,65.63,0,0,1,1.6,10.89q.4,6,.41,13.87v52q0,8.16-1.54,12.34t-4.09,4.17q-5.53,0-5.54-16.51V164.42q0-13-1.6-20t-6.08-7q-3,0-5.4,4.12a33.76,33.76,0,0,0-3.59,11.29q-.9,6.08-.9,21.59v35.9q0,8.05-1.5,12.29t-4.17,4.22q-5.53,0-5.54-16.51V92.51q0-8.25,1.45-12.38T504.89,76q2.67,0,4.17,4.18T510.56,92.51Z"/><path class="cls-1" d="M581.67,178.25H559.74a81.08,81.08,0,0,0,1.54,16.31q1.5,7.06,4,10.64t5.48,3.58a6.35,6.35,0,0,0,3.67-1.14,12.5,12.5,0,0,0,3.23-3.58,47.32,47.32,0,0,0,2.87-5.23q1.31-2.78,3.41-7.56a2.68,2.68,0,0,1,2.46-1.79c1.15,0,2.08.77,2.79,2.29a15.73,15.73,0,0,1,1.07,6.47,37.45,37.45,0,0,1-1.19,8.6,40.7,40.7,0,0,1-3.59,9.45,24.33,24.33,0,0,1-6,7.51,12.78,12.78,0,0,1-8.35,3q-10.8,0-16.8-14.92t-6-40.48a156.91,156.91,0,0,1,1.48-22.33,81.57,81.57,0,0,1,4.31-17.65q2.83-7.37,7-11.29a13.07,13.07,0,0,1,9.19-3.93q6.57,0,11.28,6.71t7,17.36a100.68,100.68,0,0,1,2.34,21.68q0,10.24-2.43,13.28A8.19,8.19,0,0,1,581.67,178.25Zm-21.93-15.42h20.33q-.42-13.92-3.1-20.84t-7.08-6.91q-4.2,0-6.88,7T559.74,162.83Z"/><path class="cls-1" d="M640.54,193.16A50.93,50.93,0,0,1,639.29,204a47.71,47.71,0,0,1-3.82,11,24.64,24.64,0,0,1-6.46,8.4,13.55,13.55,0,0,1-8.79,3.18q-10.38,0-16.22-14.67t-5.83-39.33A146,146,0,0,1,600.84,143q2.67-12.84,7.72-19.85t12.07-7a12.1,12.1,0,0,1,8,3.08,26.07,26.07,0,0,1,6.16,8,46.06,46.06,0,0,1,3.86,10.4A43.91,43.91,0,0,1,640,147.91a20.27,20.27,0,0,1-1.5,8.25q-1.5,3.39-3.63,3.39a2.69,2.69,0,0,1-2.32-1.74,32.34,32.34,0,0,1-2.07-5.62,47.51,47.51,0,0,0-4.3-11.34q-2.24-3.78-5.68-3.78-5,0-8,9.4t-3,25.71a116.9,116.9,0,0,0,.78,14.07,58.58,58.58,0,0,0,2.26,10.94,19.41,19.41,0,0,0,3.57,6.87,6.15,6.15,0,0,0,4.6,2.33q3.38,0,5.77-3.78t4.25-11.53a36.72,36.72,0,0,1,2.22-7.17q1.18-2.58,2.91-2.58,2.06,0,3.41,3.78A23.74,23.74,0,0,1,640.54,193.16Z"/><path class="cls-1" d="M675,214.35,665.14,175l-6.08,13.93v21.58q0,7.86-1.7,12.09t-3.92,4.22c-1.73,0-3.08-1.39-4.07-4.17s-1.48-6.9-1.48-12.34V94.5q0-9,1.44-13.78T653.44,76q2.58,0,4.1,4.28t1.52,12.63v65.84l12.61-32a76.38,76.38,0,0,1,3.57-8.15q1.23-2.19,3-2.19,2.09,0,3.49,3.23a20.57,20.57,0,0,1,1.39,8.11q0,6-4.56,15.91l-5.95,13.23,11.5,43.76c.85,3.25,1.45,5.72,1.82,7.41a22.69,22.69,0,0,1,.56,4.83A28.76,28.76,0,0,1,685,223.05q-1.46,3.73-3.84,3.73c-1.37,0-2.42-.89-3.16-2.68A91.48,91.48,0,0,1,675,214.35Z"/></g></g></svg>